# xmcd
# Track frame offsets:
# 150
# 13572
# 26146
# 38703
# 50767
# 62495
# 73257
# 86682
# 102186
# 115188
# 125897
# 137074
#
# Disc length: 1963 seconds
# Revision: 0
# Processed by: cddbd v1.4PL0 Copyright (c) Steve Scherf et al.
# Submitted via: VisiTrax 2.9.5.180 - For more info visit www.synapsa.com
#
DISCID=ab07a90c
DTITLE=Don Williams - The Ties That Bind: CD 3
DYEAR=2000
DGENRE=
TTITLE0=Playing Around
TTITLE1=There's Never Been A Time
TTITLE2=Coming Apart
TTITLE3=On Her Way To Being A Woman
TTITLE4=Follow Me Back To Louisville
TTITLE5=Always Something There To Remind Me
TTITLE6=Ruby Tuesday
TTITLE7=Tears
TTITLE8=Where Do I Go From Here
TTITLE9=Spend Some Time With Me
TTITLE10=Storybook Children
TTITLE11=Take My Hand For A While
EXTD=Traacks 2-12 The Pozo-Seco Singers
EXTT0=
EXTT1=
EXTT2=
EXTT3=
EXTT4=
EXTT5=
EXTT6=
EXTT7=
EXTT8=
EXTT9=
EXTT10=
EXTT11=
PLAYORDER=
